<svg width="200" height="200" viewBox="0 0 200 200" fill="none" xmlns="http://www.w3.org/2000/svg">
<g id="Logo">
<rect id="Background" width="200" height="200" rx="10" fill="#0f172a"/>
<path id="Text" d="M56.728 146.28C48.536 146.28 41.6667 145.085 36.12 142.696C30.6587 140.307 26.52 137.192 23.704 133.352C20.888 129.512 19.3947 125.416 19.224 121.064C19.224 120.381 19.48 119.784 19.992 119.272C20.504 118.675 21.144 118.376 21.912 118.376H35.608C36.7173 118.376 37.5707 118.632 38.168 119.144C38.7653 119.571 39.32 120.125 39.832 120.808C40.4293 122.259 41.368 123.667 42.648 125.032C44.0133 126.397 45.848 127.549 48.152 128.488C50.456 129.341 53.3147 129.768 56.728 129.768C62.2747 129.768 66.4133 128.872 69.144 127.08C71.96 125.288 73.368 122.856 73.368 119.784C73.368 117.565 72.6 115.773 71.064 114.408C69.6133 113.043 67.2667 111.805 64.024 110.696C60.8667 109.587 56.6427 108.392 51.352 107.112C44.952 105.747 39.4907 103.997 34.968 101.864C30.5307 99.6453 27.16 96.8293 24.856 93.416C22.6373 89.9173 21.528 85.608 21.528 80.488C21.528 75.368 22.936 70.8453 25.752 66.92C28.568 62.9093 32.536 59.7947 37.656 57.576C42.776 55.272 48.8773 54.12 55.96 54.12C61.6773 54.12 66.712 54.888 71.064 56.424C75.5013 57.96 79.1707 59.9653 82.072 62.44C85.0587 64.9147 87.32 67.56 88.856 70.376C90.392 73.192 91.2027 75.9227 91.288 78.568C91.288 79.2507 91.032 79.8907 90.52 80.488C90.008 81 89.368 81.256 88.6 81.256H74.264C73.4107 81.256 72.6427 81.0853 71.96 80.744C71.2773 80.4027 70.7227 79.8053 70.296 78.952C69.784 76.7333 68.248 74.8133 65.688 73.192C63.2133 71.4853 59.9707 70.632 55.96 70.632C51.7787 70.632 48.4507 71.4 45.976 72.936C43.5867 74.472 42.392 76.8187 42.392 79.976C42.392 82.024 42.9893 83.7733 44.184 85.224C45.464 86.5893 47.5547 87.8267 50.456 88.936C53.4427 89.96 57.368 91.112 62.232 92.392C69.7413 93.928 75.8427 95.7627 80.536 97.896C85.2293 100.029 88.6853 102.803 90.904 106.216C93.1227 109.544 94.232 113.768 94.232 118.888C94.232 124.605 92.6107 129.512 89.368 133.608C86.2107 137.704 81.816 140.861 76.184 143.08C70.6373 145.213 64.152 146.28 56.728 146.28ZM111.172 145C110.233 145 109.465 144.701 108.868 144.104C108.271 143.507 107.972 142.739 107.972 141.8V58.6C107.972 57.6613 108.271 56.8933 108.868 56.296C109.465 55.6987 110.233 55.4 111.172 55.4H149.188C156.271 55.4 162.073 56.424 166.596 58.472C171.119 60.52 174.447 63.4213 176.58 67.176C178.799 70.9307 179.908 75.3253 179.908 80.36C179.908 83.5173 179.311 86.2907 178.116 88.68C177.007 91.0693 175.599 93.032 173.892 94.568C172.271 96.104 170.692 97.256 169.156 98.024C172.484 99.56 175.385 102.12 177.86 105.704C180.42 109.203 181.7 113.384 181.7 118.248C181.7 123.624 180.505 128.317 178.116 132.328C175.727 136.339 172.185 139.453 167.492 141.672C162.799 143.891 157.081 145 150.34 145H111.172ZM128.324 130.024H147.908C152.089 130.024 155.247 128.872 157.38 126.568C159.513 124.179 160.58 121.363 160.58 118.12C160.58 114.792 159.471 112.019 157.252 109.8C155.119 107.496 152.004 106.344 147.908 106.344H128.324V130.024ZM128.324 91.624H146.756C150.767 91.624 153.753 90.6427 155.716 88.68C157.764 86.632 158.788 84.0293 158.788 80.872C158.788 77.7147 157.764 75.1973 155.716 73.32C153.753 71.3573 150.767 70.376 146.756 70.376H128.324V91.624Z" fill="white"/>
<rect id="Black Line" y="95" width="200" height="6" fill="#0f172a"/>
<path id="Bottom Line" d="M15 156C15 154.895 15.8954 154 17 154H163C164.105 154 165 154.895 165 156V162C165 163.105 164.105 164 163 164H17C15.8954 164 15 163.105 15 162V156Z" fill="white"/>
<path id="Top Line" d="M38 34C38 32.8954 38.8954 32 40 32H186C187.105 32 188 32.8954 188 34V40C188 41.1046 187.105 42 186 42H40C38.8954 42 38 41.1046 38 40V34Z" fill="white"/>
<path id="Bottom Arrow" d="M185 156.768C186.333 157.538 186.333 159.462 185 160.232L172.25 167.593C170.917 168.363 169.25 167.401 169.25 165.861V151.139C169.25 149.599 170.917 148.637 172.25 149.407L185 156.768Z" fill="#7FEAF9"/>
<path id="Top Arrow" d="M18 38.2321C16.6667 37.4623 16.6667 35.5377 18 34.7679L30.75 27.4067C32.0833 26.6369 33.75 27.5992 33.75 29.1388V43.8612C33.75 45.4008 32.0833 46.3631 30.75 45.5933L18 38.2321Z" fill="#73FDC3"/>
</g>
</svg>
