<svg width="210" height="200" viewBox="0 0 210 200" fill="none" xmlns="http://www.w3.org/2000/svg">
<path d="M35 10H175C188.807 10 200 21.1929 200 35V90H35C21.1929 90 10 78.8071 10 65V35C10 21.1929 21.1929 10 35 10Z" stroke="#334155" stroke-width="20"/>
<mask id="path-2-inside-1_1_7" fill="#334155">
<path d="M95 100H210V165C210 184.33 194.33 200 175 200H95V100Z"/>
</mask>
<path d="M95 100H210H95ZM230 165C230 195.376 205.376 220 175 220H75L115 180H175C183.284 180 190 173.284 190 165H230ZM75 220V100H115V180L75 220ZM230 100V165C230 195.376 205.376 220 175 220V180C183.284 180 190 173.284 190 165V100H230Z" fill="#334155" mask="url(#path-2-inside-1_1_7)"/>
<path d="M0 190C0 184.477 4.47715 180 10 180H95V200H10C4.47715 200 0 195.523 0 190V190Z" fill="#334155"/>
</svg>
